<svg width="99" height="99" viewBox="0 0 99 99" fill="none" xmlns="http://www.w3.org/2000/svg">
<g style="mix-blend-mode:multiply" opacity="0.58">
<path fill-rule="evenodd" clip-rule="evenodd" d="M0.409478 50.1508C1.01688 53.5576 1.49225 56.9907 2.20529 60.3843C2.87872 63.5798 4.00111 66.7489 4.50288 69.984C4.88581 72.4532 4.68774 75.0413 4.63492 77.5765C4.60851 79.1215 4.45005 80.6796 4.23878 82.1981C3.94828 84.5221 3.56535 86.8197 3.20883 89.1305C2.85231 91.2696 2.49579 93.3955 2.13927 95.5479C2.09966 95.8648 2.13927 96.1817 2.13927 96.591C3.36729 96.4458 4.52928 96.3137 5.65166 96.1553C8.09449 95.7987 10.5109 95.3762 12.9537 95.0725C15.7135 94.716 18.46 94.2934 21.2462 94.1482C23.3985 94.0425 25.6169 94.0293 27.7164 94.4387C32.1531 95.3234 36.5238 96.525 40.9341 97.4889C43.2184 97.9643 45.5424 98.3076 47.8664 98.4661C51.2204 98.7169 54.5611 98.9678 57.8886 98.849C62.0745 98.6641 66.1282 97.7002 69.9839 95.9968C72.0174 95.1121 73.9849 94.135 76.0052 93.2371C76.3617 93.0918 76.9295 93.0258 77.286 93.1975C81.4058 95.1253 85.6709 96.525 90.1604 97.1324C92.8673 97.5549 95.5875 97.8454 98.334 97.8851L98.334 93.0522C92.5768 93.0786 86.9121 92.1279 81.3662 89.9095C83.1488 88.3382 84.8126 86.8593 86.582 85.288C88.0213 87.5856 90.134 89.0381 92.8145 89.4474C94.3594 89.6719 95.9572 89.6323 97.5285 89.6191C91.4544 83.3997 93.1842 74.4339 98.2944 70.1028C98.2944 70.1028 98.3076 70.116 98.334 70.1424L98.334 55.0365C97.753 56.3569 97.1588 57.6114 96.657 58.8658C95.0197 62.9196 92.9994 66.7753 90.6094 70.4197C88.8664 73.0606 87.2026 75.7543 85.1295 78.1179C82.6999 80.8777 79.9665 83.3865 77.1936 85.8426C75.543 87.3083 75.4374 87.1366 73.4699 85.9086C70.4329 83.9807 67.7524 81.6567 65.3756 79.0026C61.6123 74.8432 58.7997 70.0632 56.9643 64.7682C56.3965 63.1572 55.9608 61.5199 55.4722 59.8957C55.4062 59.6845 55.4326 59.4204 55.4062 59.011C60.5956 62.946 65.9698 66.1943 72.4136 67.6468C71.8854 68.1485 71.4496 68.5843 71.0139 69.0465C69.469 70.6574 68.6899 72.6249 68.5182 74.8168C68.439 75.8996 68.3466 77.0616 68.5975 78.0783C69.1785 80.3363 70.8422 81.5775 73.0606 82.1321C75.5959 82.7791 78.3688 81.5907 79.3327 79.9137C80.6928 77.5237 80.0194 75.9524 78.25 74.3415C77.5765 73.734 76.7446 73.3379 76.0052 72.8361C87.8496 68.1353 95.1385 59.3808 98.334 46.7837L98.334 3.0108C93.6464 6.90612 92.4184 12.1087 92.8145 17.9319C86.5424 15.9644 83.4657 18.5657 81.2078 21.3386C82.6074 21.814 84.0731 22.1969 85.4332 22.8043C88.8664 24.3493 91.6921 26.5544 92.4844 30.5025C92.6297 31.2552 92.5108 32.0739 92.5108 32.8397C90.8735 31.9154 89.2889 30.9383 87.6119 30.08C85.1031 28.786 82.4226 28.0465 79.5836 28.1918C77.154 28.337 74.9752 29.1689 73.0738 30.6874C70.2744 32.8794 68.7163 35.8504 68.0561 39.2307C67.3695 42.6243 67.6732 45.9254 69.6934 48.8964C71.344 51.3392 73.7076 52.4352 76.573 52.5804C78.4348 52.6597 80.2306 52.3692 82.1849 51.7882C79.8477 50.7186 78.5405 48.9228 77.8934 46.7045C77.2464 44.4069 77.1804 42.0829 78.831 40.0494C79.7157 38.9402 80.9173 38.3988 82.2773 38.1611C87.5723 37.2764 90.6094 41.1718 91.6261 45.0275C93.0126 50.3621 90.3717 55.8816 85.7633 58.945C82.3698 61.1898 78.6461 61.9424 74.7112 61.6255C68.8352 61.1634 63.5534 59.011 58.9978 55.3006C56.3173 53.1086 54.0329 50.4941 53.0162 47.061C52.7653 46.2291 52.0919 45.9914 51.4316 45.7405C48.3814 44.6313 45.8593 42.7959 43.9051 40.221C42.545 38.4252 41.1189 36.603 40.1022 34.6091C38.4912 31.4929 37.4613 28.1918 37.0916 24.6265C36.7086 21.0481 37.0255 17.615 38.6761 14.3931C40.8284 10.1808 44.156 7.31546 48.9228 6.69485C53.0822 6.15347 56.8719 7.22304 59.3675 10.9203C61.1501 13.5348 61.0049 17.747 58.2584 19.8729C56.9379 20.9161 55.3138 21.233 53.7028 21.0481C51.8806 20.8369 50.1244 20.2559 48.7247 18.975C48.1833 18.4733 47.7476 17.8394 47.259 17.2584C47.0874 17.0472 46.9685 16.8227 46.7176 16.4398C45.965 19.3712 45.5821 22.1045 46.612 24.8774C47.5891 27.5976 49.6094 29.2481 52.3295 30.0932C56.2249 31.2816 59.9881 30.7798 63.5402 28.918C67.0526 27.0826 69.4162 24.27 70.2084 20.2955C70.631 18.2488 70.3141 16.2153 69.7727 14.2214C68.9936 11.356 67.5147 8.82078 65.8641 6.41756C65.7189 6.20629 65.6133 5.98182 65.4416 5.69132C68.8088 5.61209 71.5157 6.76088 73.536 9.30935C75.3582 11.5937 76.507 14.2214 77.1408 17.2584C78.9366 15.7267 80.3627 14.1158 80.9437 11.9502C81.5115 9.79791 81.2606 7.64558 80.5211 5.57247C82.3169 5.49325 84.0335 5.46684 85.7501 5.28197C88.5363 4.96507 91.0583 3.98793 93.2635 2.20532C93.7652 1.78278 94.267 1.32062 94.7688 0.884876C95.0857 0.607582 95.2441 0.317085 95.2441 0.000177702L50.2829 0.000173771C50.2829 0.000173771 50.3225 0.0265884 50.3489 0.0265884C38.3988 3.605 30.2252 11.1844 25.7621 22.6063C25.0095 21.6819 24.27 20.6124 23.3589 19.7673C21.7744 18.3016 19.7144 18.4336 18.0639 19.8861C15.9248 21.8272 15.8059 24.9434 17.0603 27.3995C18.1035 29.4066 19.8861 30.4497 22.0649 30.4365C25.5376 30.3969 28.6143 29.2481 30.9383 26.2903C32.5492 32.6153 35.7051 38.0555 39.5344 43.2845C38.28 42.9544 36.9859 42.7431 35.7711 42.3074C33.5263 41.4887 31.2552 40.67 29.116 39.6533C26.2903 38.3196 23.6362 36.6426 21.2726 34.5695C20.2954 33.7112 19.2391 32.919 18.3412 31.9946C15.8983 29.5518 13.8252 26.7789 11.9634 23.8739C11.5409 23.2401 11.6861 22.8043 12.1879 22.2365C14.0761 20.0974 15.7663 17.7734 17.7734 15.7663C21.2462 12.32 25.2075 9.46779 29.4065 6.97214C31.5193 5.71771 33.6584 4.4765 35.8503 3.36732C37.8178 2.39019 39.8645 1.57151 41.8716 0.673605C42.3073 0.488742 42.7299 0.277466 43.2581 0.039785C43.2184 0.013376 43.192 0.000173151 43.1524 0.000173148L28.6143 0.000171877C28.6143 0.000171877 28.6407 0.0265865 28.6539 0.0265865C25.9338 1.63753 23.3589 3.42013 20.3087 4.33124C16.8359 5.3744 13.7856 4.58213 11.0787 2.24494C10.4977 1.76958 9.92992 1.28101 9.29611 0.739628C8.83395 5.11031 9.48097 8.97923 13.5083 11.6201C11.9634 13.4555 10.3921 15.3174 8.75473 17.2452C6.6024 11.4881 5.53283 5.75733 5.53283 0.000169859L0.594354 0.000169427C0.55474 1.13576 0.594351 2.28455 0.673577 3.40693C0.964076 7.4475 1.63751 11.4617 3.03718 15.3174C3.82945 17.4565 4.72736 19.5692 5.54604 21.7216C5.65167 21.9724 5.67808 22.3554 5.54604 22.5534C3.01077 26.9637 1.38662 31.6909 0.435893 36.6954C0.264235 37.6198 0.158596 38.5837 0.000142444 39.5212L0.000141687 48.1834C0.145391 48.8304 0.29064 49.4774 0.422685 50.1508L0.409478 50.1508ZM9.53378 89.0777C10.5373 84.2844 10.9203 79.5968 10.7222 74.6187C14.4855 79.6761 18.7637 83.8487 23.7814 87.3215C19.0146 87.2554 14.3402 87.8893 9.53378 89.0777ZM25.8281 80.125C22.8571 78.1311 20.5067 75.8204 18.5921 72.8625L25.8281 72.8625L25.8281 80.125ZM5.96858 40.6964C6.29869 37.9763 6.76084 35.2826 7.30223 32.6021C7.65875 30.9911 8.30577 29.4198 8.87356 27.7032C19.041 42.5186 34.0677 48.7776 47.6419 50.7186C50.23 66.6828 57.2284 80.0722 71.0139 89.7379C69.3237 90.3453 67.8316 91.098 66.2603 91.4149C62.8271 92.1015 59.3279 92.6693 55.8419 93.1579C53.9405 93.4351 51.973 93.5936 50.0452 93.5408C45.318 93.3955 40.5907 92.9334 36.154 91.0451C33.8565 90.068 31.5457 88.9588 30.1064 86.7933C29.3537 85.6841 28.8123 84.3505 28.4954 83.0432C27.954 80.9041 28.2445 78.7914 29.0236 76.7051C29.8027 74.5923 31.4532 73.3511 33.249 73.734C34.6091 74.0245 36.1144 75.0677 36.3653 76.8899C36.5106 77.8935 35.6127 79.1743 34.4771 79.544C33.4339 79.8741 32.9453 79.61 32.2323 78.2632C30.3441 79.9534 30.08 81.8152 31.0571 83.2677C33.5528 86.8857 38.7949 87.031 41.0397 82.7263C41.4622 81.934 41.7131 81.0361 42.0432 80.0854C47.4571 86.9121 54.9572 88.6815 63.0252 88.7476C60.886 86.8197 58.6545 84.9843 56.621 82.9112C54.7196 80.9701 53.0426 78.7914 51.2864 76.7183C48.2097 73.1002 45.0539 69.601 40.5907 67.6204C40.1286 67.4091 39.6532 67.2242 39.1911 67.0526C38.7157 66.8809 38.2271 66.7357 37.6197 66.5508C40.023 64.9002 42.3337 63.3025 43.8919 60.8993C45.4764 58.43 45.8858 55.7495 45.7141 52.9106C39.4156 52.0787 35.4674 55.3138 32.6548 60.2523C31.5721 58.2188 30.6214 56.2117 29.4594 54.3366C28.1257 52.1975 26.3167 50.4413 24.3756 48.8304C21.9724 46.8233 19.6484 44.7106 17.2452 42.7035C14.5911 40.4455 12.2803 37.8971 10.2732 35.0449C10.2468 35.0053 10.1676 35.0053 10.128 35.0053C10.1016 39.1647 10.5901 43.2977 12.1615 47.1798C13.5612 50.7318 15.7135 53.8085 18.8826 56.0928C18.909 56.1193 18.909 56.1589 18.9222 56.1721C17.8922 56.489 16.9151 56.8191 16.0172 57.3473C15.3306 57.7434 14.6835 58.2452 14.1157 58.9186C12.3728 60.9653 13.1122 64.8342 14.9344 66.5772C16.6114 68.1485 19.6484 67.7524 20.652 65.9038C19.4239 65.2568 19.0806 64.5833 19.5164 63.5402C19.9785 62.365 21.4574 61.5991 22.5534 61.9292C25.0623 62.7215 26.2507 65.8246 24.6001 67.5543C23.7814 68.3862 22.6326 69.0861 21.4971 69.4162C18.4468 70.3405 15.4098 70.1688 12.65 68.439C10.9731 67.3959 9.82429 65.7981 8.88677 64.108C7.24941 61.0709 6.3515 57.8094 5.94216 54.4027C5.69128 52.3956 5.40078 50.3885 5.40078 48.355C5.42719 45.8065 5.65167 43.2317 5.96858 40.6964Z" fill="#F5E4D4"/>
</g>
</svg>
