<svg xmlns="http://www.w3.org/2000/svg" width="21" height="41" viewBox="0 0 21 41" fill="none"><SCRIPT xmlns="" id="allow-copy_script"/>
<path fill-rule="evenodd" clip-rule="evenodd" d="M10.0494 13.543C9.73802 13.2782 9.45524 12.9918 9.12592 12.7734C8.57824 12.4012 8.06636 12.505 7.75852 13.0025C7.51511 13.3927 7.7442 14.1731 8.19881 14.4487C8.93262 14.8997 9.70223 14.8568 10.4217 14.4558C11.0625 14.0943 11.3488 13.4822 11.3846 12.7376C11.4634 11.0875 10.6508 10.0458 9.20467 9.38C7.6225 8.65335 6.13339 8.77505 4.78747 9.88472C3.98207 10.5469 3.56326 11.4633 3.38428 12.4907C3.19814 13.5753 3.27689 14.6241 3.65275 15.6693C4.10735 16.9436 5.02014 17.7276 6.25152 18.175C7.46857 18.6153 8.73574 18.805 10.0244 18.7478C10.5721 18.7227 11.1412 18.712 11.6459 18.533C12.097 18.3755 12.4836 18.0104 12.8773 17.7097C13.919 16.9114 14.9463 16.0989 16.0273 15.2541C17.4556 16.9687 18.8982 18.6976 20.3622 20.4552C18.8659 22.2593 17.3912 24.0384 15.9021 25.8353C14.8962 25.0478 13.8832 24.3355 12.974 23.5122C12.0862 22.7103 11.1018 22.3595 9.92416 22.3595C8.53529 22.3595 7.19295 22.4812 5.8864 23.0146C4.44383 23.6052 3.58831 24.6505 3.30553 26.1432C3.08359 27.3208 3.08002 28.5093 3.574 29.6476C4.14673 30.972 5.0989 31.8132 6.54504 32.0817C8.18807 32.3859 9.51967 31.7559 10.5756 30.6033C11.3345 29.7764 11.56 28.5057 11.0088 27.3674C10.5363 26.4009 8.94336 25.889 7.91602 26.7409C7.32181 27.2313 7.47215 28.316 8.16301 28.5057C8.64983 28.6417 9.01495 28.3088 9.36933 28.0296C9.55189 27.8828 9.69507 27.6859 9.85257 27.5141C10.7654 28.2444 10.6365 29.9375 9.602 30.521C8.50307 31.1367 7.32539 31.3479 6.15129 30.6892C5.27787 30.1952 4.85548 29.3469 4.65145 28.4162C4.34003 27.0023 4.45457 25.6492 5.5893 24.6004C6.40186 23.8486 7.43994 23.5873 8.52097 23.3976C9.69507 23.19 10.751 23.4477 11.7784 23.9525C13.1816 24.6433 13.8796 25.8747 14.2197 27.3208C14.6313 29.039 14.0335 30.4744 12.9453 31.8168C11.5779 33.5063 9.88121 34.7162 7.98761 35.7257C6.17277 36.6993 4.44741 37.8197 2.92967 39.2337C2.5395 39.5952 2.13143 39.9388 1.73052 40.2932C1.19358 37.8018 1.90949 35.4465 4.49395 34.258C2.05626 32.6329 0.835622 30.3026 0.542096 27.4783C0.230673 24.4715 1.67324 22.2808 4.00355 20.5268C1.6804 18.7263 0.330901 16.5141 0.670961 13.5359C0.993122 10.7367 2.20302 8.43857 4.64787 6.83134C1.94887 5.57849 1.41909 3.3699 1.80926 0.706692C2.31041 1.1613 2.80081 1.59085 3.28047 2.03471C4.5369 3.18734 5.95083 4.1395 7.43994 4.95923C9.34069 6.00088 11.2128 7.0676 12.6518 8.74284C13.382 9.5912 14.0693 10.4575 14.3521 11.5958C14.6922 12.9703 14.3521 14.2267 13.7078 15.4008C12.9238 16.8363 11.5958 17.5128 10.0101 17.6989C8.59972 17.8672 7.30033 17.5271 6.10834 16.7647C5.29219 16.2456 4.8698 15.4689 4.72662 14.5346C4.5548 13.4392 4.75526 12.4119 5.28861 11.4347C5.82555 10.4467 7.01755 9.78091 8.20239 10.078C8.67847 10.1961 9.17603 10.2928 9.61632 10.5004C10.7654 11.0409 10.9658 12.7305 10.0494 13.543ZM13.5789 20.5877C14.1015 20.9921 14.6098 21.3537 15.0859 21.751C15.2935 21.9264 15.426 21.9157 15.5978 21.7224C15.9701 21.3036 16.3567 20.8955 16.7504 20.4659C16.3173 19.9863 15.9128 19.5424 15.519 19.1093C14.8425 19.6247 14.2268 20.0937 13.5825 20.5877L13.5789 20.5877Z" fill="#7AA7E5" fill-opacity="0.5"/>
</svg>