<svg xmlns="http://www.w3.org/2000/svg" width="35" height="35" viewBox="0 0 35 35" fill="none"><SCRIPT xmlns="" id="allow-copy_script"/>
<path fill-rule="evenodd" clip-rule="evenodd" d="M18.6088 5.69241C20.3476 7.56995 22.1894 7.68769 22.406 7.694C22.0822 7.70241 18.1316 7.89795 17.6543 11.8528C17.1581 15.9863 21.7668 17.3445 23.4026 15.856C25.0404 14.3695 25.1035 12.4646 23.9156 11.7603C24.4139 12.8851 22.263 14.3253 21.1802 12.4604C20.0995 10.5934 23.3248 7.98205 26.0791 10.9003C28.3393 13.2909 26.1022 17.252 23.3037 17.7041C26.098 18.1519 28.3414 22.1151 26.0791 24.5078C23.3269 27.4198 20.0995 24.8064 21.1781 22.9414C22.263 21.0786 24.4076 22.5209 23.9135 23.65C25.0993 22.9393 25.0383 21.0366 23.4026 19.5522C21.7647 18.0657 17.1581 19.4218 17.6501 23.5512C18.1252 27.5123 22.078 27.7015 22.4018 27.7099C22.1852 27.7204 20.3455 27.8403 18.6025 29.7136C16.7502 31.7089 17.4861 34.5137 17.4861 34.5137L30.6331 21.3667C30.8833 20.7632 30.8097 18.5745 28.6147 17.6999C29.1151 17.5022 29.5062 17.2373 29.8089 16.9346C30.8265 15.9169 30.8286 14.5019 30.631 14.0352L17.484 0.888165C17.484 0.888165 16.7523 3.69712 18.6088 5.69241Z" fill="white"/>
<path fill-rule="evenodd" clip-rule="evenodd" d="M32.7836 16.1925L34.2953 17.7042L32.7878 19.2117C32.6386 18.6966 32.4115 18.1877 32.0919 17.7C32.279 17.4245 32.4346 17.1302 32.5671 16.8169C32.6533 16.613 32.7248 16.4027 32.7836 16.1925Z" fill="white"/>
</svg>